#N canvas 0 44 1800 1097 12;
#X obj 45 97 noise~;
#X obj 75 208 bob~, f 24;
#X obj 158 140 line~;
#X text 134 82 Hz;
#X obj 158 109 pack f 50;
#X floatatom 158 82 8 0 0 0 - - - 0;
#X obj 154 51 hsl 162 19 60 5000 0 1 empty empty empty -2 -8 0 10 #dfdfdf #000000 #000000 600 1;
#X obj 76 152 r \$0-set;
#X obj 244 105 hsl 162 19 0 4 0 1 empty empty empty -2 -8 0 10 #dfdfdf #000000 #000000 11100 1;
#X floatatom 241 132 5 0 8 0 - - - 0;
#X obj 241 161 sig~;
#X text 283 132 (> 4 to oscillate);
#X text 144 27 resonant/cutoff frequency;
#X text 267 83 "resonance" (0-8);
#X text 267 215 NOISE;
#X obj 86 290 output~;
#X obj 487 282 output~;
#X obj 918 60 soundfiler;
#N canvas 0 22 450 278 (subpatch) 0;
#X array GrowlSound1 224734 float 2;
#X coords 0 1 224734 -1 200 140 1;
#X restore 1017 74 graph;
#N canvas 0 22 450 278 (subpatch) 0;
#X array GrowlSound2 224734 float 2;
#X coords 0 1 224734 -1 200 140 1;
#X restore 1018 244 graph;
#X msg 916 29 read -resize MonsterGrowl.wav GrowlSound1 GrowlSound2;
#X obj 544 211 tabplay~ GrowlSound1;
#X obj 488 211 bng 19 250 50 0 empty empty empty 0 -10 0 12 #fcfcfc #000000 #000000;
#X obj 479 243 tabplay~ GrowlSound2;
#X floatatom 485 121 5 0 0 0 - - - 0;
#X msg 481 29 1;
#X obj 486 177 sel 1;
#X obj 483 92 random 100;
#X obj 485 147 expr if($f1 > $f2 \, 1 \, 0);
#X floatatom 607 119 5 0 0 0 - - - 0;
#X text 202 330 Deep noise;
#X text 611 321 Monster growl;
#X floatatom 111 659 5 0 0 0 - - - 0;
#X obj 110 689 osc~;
#X obj 110 627 hsl 162 19 200 2000 0 0 empty empty empty -2 -10 0 12 #fcfcfc #000000 #000000 0 1;
#X obj 109 717 *~;
#X floatatom 202 706 5 0 0 0 - - - 0;
#X obj 306 567 vsl 19 162 0 1 0 0 empty empty empty 0 -9 0 12 #fcfcfc #000000 #000000 0 1;
#X obj 103 565 line;
#X floatatom 107 598 5 0 0 0 - - - 0;
#X text 104 481 Attack Go to 1 \, over 1000ms;
#X text 143 568 Create an envelope;
#X obj 98 456 bng 19 250 50 0 empty empty empty 0 -10 0 12 #fcfcfc #000000 #000000;
#X text 88 434 Bang object \, trigger something;
#X text 10 627 Freq slider;
#X text 234 539 Decay \, Go to 0 over 500ms;
#X obj 165 504 delay 100;
#X text 146 599 Value used for volume;
#X msg 98 504 1 10;
#X obj 122 876 rev3~ 100 90 3000 20;
#X floatatom 176 737 4 0 120 0 - - - 0;
#X floatatom 204 766 4 0 100 0 - - - 0;
#X floatatom 231 803 6 0 0 0 - - - 0;
#X floatatom 259 834 4 0 100 0 - - - 0;
#X text 279 803 crossover frequency \, Hz.;
#X obj 75 927 output~;
#X obj 213 922 output~;
#X obj 134 790 *~ -1;
#X text 207 737 output level (dB);
#X text 237 761 liveness \, feedback percentage (0-100), f 18;
#X text 294 828 High Frequency damping \, percentage (0-100), f 23;
#X text 277 875 args: level \, liveness \, crossover \, damping;
#X msg 172 539 0 400;
#X obj 483 60 metro 20000 1;
#X obj 1300 493 soundfiler;
#X msg 1298 462 read -resize Breathin.wav breathin1 breathin2;
#X obj 502 530 output~;
#X obj 487 436 bng 19 250 50 0 empty empty empty 0 -10 0 12 #fcfcfc #000000 #000000;
#X msg 480 366 1;
#X text 619 569 Breathe in;
#X text 336 967 Sonar ping;
#X obj 556 461 tabplay~ breathin1;
#X obj 491 493 tabplay~ breathin2;
#N canvas 0 22 450 278 (subpatch) 0;
#X array breathin1 224734 float 2;
#X coords 0 1 224734 -1 200 140 1;
#X restore 1397 511 graph;
#N canvas 0 22 450 278 (subpatch) 0;
#X array breathin2 224734 float 2;
#X coords 0 1 224734 -1 200 140 1;
#X restore 1398 681 graph;
#X msg 54 371 1;
#X obj 56 402 metro 15000;
#X obj 1269 106 soundfiler;
#N canvas 0 22 450 278 (subpatch) 0;
#X array breathout1 224734 float 2;
#X coords 0 1 224734 -1 200 140 1;
#X restore 1366 124 graph;
#N canvas 0 22 450 278 (subpatch) 0;
#X array breathout2 224734 float 2;
#X coords 0 1 224734 -1 200 140 1 0 0;
#X restore 1367 294 graph;
#X msg 1267 75 read -resize Breathout.wav breathout1 breathout2;
#X obj 750 535 output~;
#X obj 735 441 bng 19 250 50 0 empty empty empty 0 -10 0 12 #fcfcfc #000000 #000000;
#X text 867 574 Breathe in;
#X obj 739 499 tabplay~ breathout2;
#X obj 804 466 tabplay~ breathout 1;
#X obj 733 386 delay 4000;
#X obj 479 399 metro 8000;
#X text 737 742 Kommentar;
#X connect 0 0 1 0;
#X connect 1 0 15 0;
#X connect 2 0 1 1;
#X connect 4 0 2 0;
#X connect 5 0 4 0;
#X connect 6 0 5 0;
#X connect 7 0 1 0;
#X connect 8 0 9 0;
#X connect 9 0 10 0;
#X connect 10 0 1 2;
#X connect 20 0 17 0;
#X connect 21 0 16 0;
#X connect 22 0 21 0;
#X connect 22 0 23 0;
#X connect 23 0 16 0;
#X connect 24 0 28 0;
#X connect 25 0 63 0;
#X connect 26 0 22 0;
#X connect 27 0 24 0;
#X connect 28 0 26 0;
#X connect 29 0 28 1;
#X connect 32 0 33 0;
#X connect 33 0 35 0;
#X connect 34 0 32 0;
#X connect 35 0 49 0;
#X connect 35 0 57 0;
#X connect 36 0 35 1;
#X connect 37 0 36 0;
#X connect 38 0 39 0;
#X connect 39 0 37 0;
#X connect 42 0 48 0;
#X connect 42 0 46 0;
#X connect 46 0 62 0;
#X connect 48 0 38 0;
#X connect 49 0 55 0;
#X connect 49 1 55 1;
#X connect 49 2 56 0;
#X connect 49 3 56 1;
#X connect 50 0 49 2;
#X connect 51 0 49 3;
#X connect 52 0 49 4;
#X connect 53 0 49 5;
#X connect 57 0 49 1;
#X connect 62 0 38 0;
#X connect 63 0 27 0;
#X connect 65 0 64 0;
#X connect 67 0 71 0;
#X connect 67 0 72 0;
#X connect 67 0 86 0;
#X connect 68 0 87 0;
#X connect 71 0 66 0;
#X connect 72 0 66 0;
#X connect 75 0 76 0;
#X connect 76 0 42 0;
#X connect 80 0 77 0;
#X connect 82 0 84 0;
#X connect 82 0 85 0;
#X connect 84 0 81 0;
#X connect 85 0 81 0;
#X connect 86 0 82 0;
#X connect 87 0 67 0;
