#N canvas 0 44 1800 1097 12;
#X obj 45 97 noise~;
#X obj 75 208 bob~, f 24;
#X obj 158 140 line~;
#X text 134 82 Hz;
#X obj 158 109 pack f 50;
#X floatatom 158 82 8 0 0 0 - - - 0;
#X obj 154 51 hsl 162 19 60 5000 0 1 empty empty empty -2 -8 0 10 #dfdfdf #000000 #000000 600 1;
#X obj 76 152 r \$0-set;
#X obj 244 105 hsl 162 19 0 4 0 1 empty empty empty -2 -8 0 10 #dfdfdf #000000 #000000 11500 1;
#X floatatom 241 132 5 0 8 0 - - - 0;
#X obj 241 161 sig~;
#X text 283 132 (> 4 to oscillate);
#X text 144 27 resonant/cutoff frequency;
#X text 267 83 "resonance" (0-8);
#X text 267 215 NOISE;
#X obj 78 263 output~;
#X obj 918 60 soundfiler;
#N canvas 0 22 450 278 (subpatch) 0;
#X array GrowlSound1 224734 float 2;
#X coords 0 1 224734 -1 200 140 1;
#X restore 1017 74 graph;
#N canvas 0 22 450 278 (subpatch) 0;
#X array GrowlSound2 224734 float 2;
#X coords 0 1 224734 -1 200 140 1;
#X restore 1018 244 graph;
#X msg 916 29 read -resize MonsterGrowl.wav GrowlSound1 GrowlSound2;
#X obj 544 211 tabplay~ GrowlSound1;
#X obj 488 211 bng 19 250 50 0 empty empty empty 0 -10 0 12 #fcfcfc #000000 #000000;
#X obj 479 243 tabplay~ GrowlSound2;
#X floatatom 485 121 5 0 0 0 - - - 0;
#X msg 481 29 1;
#X obj 486 177 sel 1;
#X obj 483 92 random 100;
#X obj 485 147 expr if($f1 > $f2 \, 1 \, 0);
#X floatatom 607 119 5 0 0 0 - - - 0;
#X text 199 301 Deep noise;
#X text 611 321 Monster growl;
#X floatatom 110 659 5 0 0 0 - - - 0;
#X obj 110 689 osc~;
#X obj 109 717 *~;
#X floatatom 202 706 5 0 0 0 - - - 0;
#X obj 304 590 vsl 19 162 0 1 0 0 empty empty empty 0 -9 0 12 #fcfcfc #000000 #000000 0 1;
#X obj 103 565 line;
#X floatatom 107 598 5 0 0 0 - - - 0;
#X text 104 481 Attack Go to 1 \, over 1000ms;
#X text 143 568 Create an envelope;
#X obj 98 456 bng 19 250 50 0 empty empty empty 0 -10 0 12 #fcfcfc #000000 #000000;
#X text 88 434 Bang object \, trigger something;
#X obj 165 504 delay 100;
#X text 146 599 Value used for volume;
#X msg 98 504 1 10;
#X obj -14 887 rev3~ 100 90 3000 20;
#X floatatom -32 741 4 0 120 0 - - - 0;
#X floatatom 68 777 4 0 100 0 - - - 0;
#X floatatom 96 816 6 0 0 0 - - - 0;
#X floatatom 123 845 4 0 100 0 - - - 0;
#X text 143 814 crossover frequency \, Hz.;
#X obj 78 937 output~;
#X obj -2 801 *~ -1;
#X text -1 740 output level (dB);
#X text 101 772 liveness \, feedback percentage (0-100), f 18;
#X text 158 839 High Frequency damping \, percentage (0-100), f 23;
#X msg 172 539 0 400;
#X obj 1300 493 soundfiler;
#X msg 1298 462 read -resize Breathin.wav breathin1 breathin2;
#X obj 548 935 output~;
#X obj 525 480 bng 19 250 50 0 empty empty empty 0 -10 0 12 #fcfcfc #000000 #000000;
#X msg 513 413 1;
#X text 684 847 Breathe in;
#X text 200 978 Sonar ping;
#N canvas 0 22 450 278 (subpatch) 0;
#X array breathin1 224734 float 2;
#X coords 0 1 224734 -1 200 140 1;
#X restore 1397 511 graph;
#N canvas 0 22 450 278 (subpatch) 0;
#X array breathin2 224734 float 2;
#X coords 0 1 224734 -1 200 140 1;
#X restore 1398 681 graph;
#X msg 54 371 1;
#X obj 1269 106 soundfiler;
#N canvas 0 22 450 278 (subpatch) 0;
#X array breathout1 224734 float 2;
#X coords 0 1 224734 -1 200 140 1;
#X restore 1379 126 graph;
#N canvas 0 22 450 278 (subpatch) 0;
#X array breathout2 224734 float 2;
#X coords 0 1 224734 -1 200 140 1 0 0;
#X restore 1367 294 graph;
#X msg 1267 75 read -resize Breathout.wav breathout1 breathout2;
#X obj 844 808 output~;
#X obj 833 560 bng 19 250 50 0 empty empty empty 0 -10 0 12 #fcfcfc #000000 #000000;
#X text 969 849 Breathe in;
#X obj 806 671 tabplay~ breathout2;
#X obj 820 498 delay 4000;
#X obj 794 650 tabplay~ breathout1;
#X obj 1077 665 noise~;
#X msg 1082 635 seed 123;
#X obj 962 699 hsl 162 19 0 1 0 0 empty empty empty -2 -10 0 12 #fcfcfc #000000 #000000 0 1;
#X floatatom 963 733 5 0 0 0 - - - 0;
#X obj 1008 774 *~;
#X floatatom 1024 661 5 0 0 0 - - - 0;
#X obj 967 649 line;
#X floatatom 1073 738 5 0 0 0 - - - 0;
#X obj 1026 734 lop~;
#X msg 975 593 0.1 500;
#X obj 1038 590 delay 1000;
#X msg 1020 635 0 2000;
#X text 1111 735 freq cutoff;
#X text 970 568 attack;
#X text 1047 567 delay;
#X obj 843 955 tabplay~ breathin1;
#X obj 841 985 tabplay~ breathin2;
#X obj 539 870 tabread4~ breathin1;
#X floatatom 1194 1183 5 0 0 0 - - - 0;
#X obj 1193 1213 osc~;
#X obj 1192 1241 *~;
#X floatatom 1264 1198 5 0 0 0 - - - 0;
#X obj 1389 1091 vsl 19 162 0 1 0 0 empty empty empty 0 -9 0 12 #fcfcfc #000000 #000000 0 1;
#X obj 1186 1089 line;
#X floatatom 1190 1122 5 0 0 0 - - - 0;
#X text 1187 1005 Attack Go to 1 \, over 1000ms;
#X text 1226 1092 Create an envelope;
#X obj 1181 980 bng 19 250 50 0 empty empty empty 0 -10 0 12 #fcfcfc #000000 #000000;
#X text 1171 958 Bang object \, trigger something;
#X text 1086 1140 Freq slider;
#X text 1317 1063 Decay \, Go to 0 over 500ms;
#X text 1229 1123 Value used for volume;
#X obj 1205 1400 rev3~ 100 90 3000 20;
#X floatatom 1259 1261 4 0 120 0 - - - 0;
#X floatatom 1467 1293 4 0 100 0 - - - 0;
#X floatatom 1314 1327 6 0 0 0 - - - 0;
#X floatatom 1342 1358 4 0 100 0 - - - 0;
#X text 1362 1327 crossover frequency \, Hz.;
#X obj 1298 1450 output~;
#X obj 1217 1314 *~ -1;
#X text 1290 1261 output level (dB);
#X text 1500 1288 liveness \, feedback percentage (0-100), f 18;
#X text 1377 1352 High Frequency damping \, percentage (0-100), f 23;
#X text 1360 1399 args: level \, liveness \, crossover \, damping;
#X msg 1255 1063 0 2000;
#X msg 1181 1028 1 2000;
#X obj 1248 1028 delay 2000;
#X floatatom 1021 1176 5 0 0 0 - - - 0;
#X obj 1014 1028 bng 19 250 50 0 empty empty empty 0 -10 0 12 #fcfcfc #000000 #000000;
#X obj 1021 1141 line 750;
#X text 155 660 770;
#X obj 1088 1076 delay 2000;
#X msg 1014 1076 650 2000;
#X msg 1088 1111 600 1000;
#X floatatom 1191 854 5 0 0 0 - - - 0;
#X msg 1187 762 1;
#X obj 1192 910 sel 1;
#X obj 1189 825 random 100;
#X obj 1191 880 expr if($f1 > $f2 \, 1 \, 0);
#X floatatom 1312 851 5 0 0 0 - - - 0;
#X text 646 120 %;
#X text -61 742 100;
#X text 47 778 82;
#X text 71 815 0;
#X text 106 843 0;
#X text 1355 853 %;
#X text 1240 1261 99;
#X text 1447 1290 94;
#X obj 539 836 *~ 224734;
#X obj 632 777 phasor~ 1;
#X floatatom 423 682 5 0 0 0 - - - 0;
#X obj 416 589 random 10;
#X obj 420 622 + 18;
#X obj 417 652 * 0.01;
#X msg 680 733 1;
#X floatatom 717 143 5 0 0 0 - - - 0;
#X obj 834 139 vsl 19 162 0 1 0 0 empty empty empty 0 -9 0 12 #fcfcfc #000000 #000000 0 1;
#X obj 862 142 vsl 19 162 0 1 0 0 empty empty empty 0 -9 0 12 #fcfcfc #000000 #000000 0 1;
#X obj 833 316 *~;
#X obj 866 315 *~;
#X obj 717 174 expr 1 - $f1;
#X obj 811 367 output~;
#X obj 1357 17 receive start;
#X obj 587 389 receive start;
#X obj 480 3 receive start;
#X obj 46 336 receive start;
#X obj 1213 732 receive start;
#X obj 1311 824 receive percent;
#X obj 608 79 receive percent;
#X obj 1239 1238 receive whalevol;
#X obj 1465 1260 receive whalerev;
#N canvas 0 44 1800 1097 controlPanel 1;
#X obj 123 37 bng 19 250 50 0 empty empty empty 0 -10 0 12 #fcfcfc #000000 #000000;
#X text 146 37 START;
#X obj 31 71 send start;
#X obj 122 167 send percent;
#X floatatom 122 138 5 0 0 0 - - - 0;
#X text 41 314 Whale sound;
#X obj 47 357 hsl 162 19 90 110 0 0 empty empty empty -2 -10 0 12 #fcfcfc #000000 #000000 0 1;
#X text 42 338 Volume;
#X obj 45 386 send whalevol;
#X obj 48 443 hsl 162 19 90 99 0 0 empty empty empty -2 -10 0 12 #fcfcfc #000000 #000000 0 1;
#X obj 45 472 send whalerev;
#X text 43 417 Reverb;
#X text 271 305 Sonar ping;
#X text 271 336 Volume;
#X obj 277 360 hsl 162 19 90 100 0 0 empty empty empty -2 -10 0 12 #fcfcfc #000000 #000000 0 1;
#X obj 274 388 send pingvol;
#X text 277 419 Reverb;
#X obj 280 442 hsl 162 19 80 90 0 0 empty empty empty -2 -10 0 12 #fcfcfc #000000 #000000 0 1;
#X obj 277 466 send pingrev;
#X text 277 488 freq;
#X obj 282 510 hsl 162 19 600 800 0 0 empty empty empty -2 -10 0 12 #fcfcfc #000000 #000000 0 1;
#X obj 275 561 send pingfreq;
#X text 537 306 Breathing;
#X text 536 340 Breath in vol;
#X obj 539 363 hsl 162 19 0.1 1 0 0 empty empty empty -2 -10 0 12 #fcfcfc #000000 #000000 0 1;
#X obj 536 394 send breathinvol;
#X text 539 430 Breath out vol;
#X obj 541 452 hsl 162 19 0.1 1 0 0 empty empty empty -2 -10 0 12 #fcfcfc #000000 #000000 0 1;
#X obj 538 485 send breathoutvol;
#X obj 646 86 send breathcutoff;
#X floatatom 645 61 5 0 0 0 - - - 0;
#X text 688 59 ~ 200;
#X text 774 298 Growl;
#X obj 774 361 hsl 162 19 0.1 1 0 0 empty empty empty -2 -10 0 12 #fcfcfc #000000 #000000 0 1;
#X text 771 338 Growl volume;
#X obj 771 392 send growlvolume;
#X text 275 590 Ping time intervals;
#X floatatom 279 612 5 0 0 0 - - - 0;
#X obj 280 649 send pingtime;
#X text 326 612 in seconds | NO NEGATIVE;
#X text 773 434 Growl stereo;
#X obj 773 460 hsl 162 19 0 1 0 0 empty empty empty -2 -10 0 12 #fcfcfc #000000 #000000 0 1;
#X obj 770 490 send growlstereo;
#X floatatom 278 537 5 0 0 0 - - - 0;
#X text 167 138 Chance of stuff happening (inverted \, 10 = 90%);
#X floatatom 649 114 5 0 0 0 - - - 0;
#X text 691 115 1000;
#X obj 649 141 send pingtimemulti;
#X text 638 40 starting variables;
#X obj 994 350 hsl 162 19 0.1 1 0 0 empty empty empty -2 -10 0 12 #fcfcfc #000000 #000000 0 1;
#X obj 992 453 hsl 162 19 0 1 0 0 empty empty empty -2 -10 0 12 #fcfcfc #000000 #000000 0 1;
#X text 993 291 Strange sound;
#X text 990 331 Volume;
#X text 992 427 Stereo;
#X obj 990 384 send strangevolume;
#X obj 989 483 send strangestereo;
#X connect 0 0 2 0;
#X connect 0 0 4 0;
#X connect 0 0 30 0;
#X connect 0 0 45 0;
#X connect 4 0 3 0;
#X connect 6 0 8 0;
#X connect 9 0 10 0;
#X connect 14 0 15 0;
#X connect 17 0 18 0;
#X connect 20 0 43 0;
#X connect 24 0 25 0;
#X connect 27 0 28 0;
#X connect 30 0 29 0;
#X connect 33 0 35 0;
#X connect 37 0 38 0;
#X connect 41 0 42 0;
#X connect 43 0 21 0;
#X connect 45 0 47 0;
#X connect 49 0 54 0;
#X connect 50 0 55 0;
#X restore 607 1136 pd controlPanel;
#X obj -42 713 receive pingvol;
#X obj 146 742 receive pingrev;
#X obj 95 626 receive pingfreq;
#X msg 431 905 level \$1;
#X obj 386 877 receive breathinvol;
#X msg 814 780 level \$1;
#X obj 781 750 receive breathoutvol;
#X msg 720 371 level \$1;
#X obj 660 345 receive growlvolume;
#X obj 223 340 receive pingtime;
#X obj 56 402 metro;
#X obj 157 370 *;
#X floatatom 232 372 5 0 0 0 - - - 0;
#X floatatom 129 406 5 0 0 0 - - - 0;
#X obj 713 114 receive growlstereo;
#X obj 483 60 metro 10000 1;
#X obj 1189 793 metro 10000 1;
#X obj 309 372 receive pingtimemulti;
#X obj 1645 70 soundfiler;
#N canvas 0 22 450 278 (subpatch) 0;
#X array strange1 617165 float 2;
#X coords 0 1 617165 -1 200 140 1 0 0;
#X restore 1742 88 graph;
#N canvas 0 22 450 278 (subpatch) 0;
#X array strange2 617165 float 2;
#X coords 0 1 617165 -1 200 140 1 0 0;
#X restore 1743 258 graph;
#X msg 1565 31 read -resize StrangeAmbience.wav strange1 strange2;
#X obj 43 1245 bng 19 250 50 0 empty empty empty 0 -10 0 12 #fcfcfc #000000 #000000;
#X floatatom 40 1156 5 0 0 0 - - - 0;
#X msg 36 1064 1;
#X obj 41 1212 sel 1;
#X obj 38 1127 random 100;
#X obj 40 1182 expr if($f1 > $f2 \, 1 \, 0);
#X floatatom 162 1154 5 0 0 0 - - - 0;
#X text 166 1356 Monster growl;
#X text 201 1155 %;
#X floatatom 272 1178 5 0 0 0 - - - 0;
#X obj 389 1174 vsl 19 162 0 1 0 0 empty empty empty 0 -9 0 12 #fcfcfc #000000 #000000 0 1;
#X obj 417 1177 vsl 19 162 0 1 0 0 empty empty empty 0 -9 0 12 #fcfcfc #000000 #000000 0 1;
#X obj 388 1351 *~;
#X obj 421 1350 *~;
#X obj 272 1209 expr 1 - $f1;
#X obj 385 1402 output~;
#X obj 35 1038 receive start;
#X obj 151 1122 receive percent;
#X msg 275 1406 level \$1;
#X obj 38 1095 metro 10000 1;
#X obj 99 1246 tabplay~ strange1;
#X obj 34 1278 tabplay~ strange2;
#X obj 268 1149 receive strangestereo;
#X obj 215 1380 receive strangevolume;
#X text 141 886 comment;
#X obj 614 899 tabread4~ breathin2;
#X obj 615 539 metro 1;
#X msg 611 512 1;
#X obj 621 572 snapshot~;
#X floatatom 532 573 5 0 0 0 - - - 0;
#X obj 600 629 expr if($f1 >= $f2 \, 0 \, 1);
#X floatatom 746 595 5 0 0 0 - - - 0;
#X obj 601 658 change;
#X obj 601 688 tgl 19 0 empty empty empty 0 -10 0 12 #fcfcfc #000000 #000000 0 1;
#X obj 579 721 *;
#X obj 432 546 bng 19 250 50 0 empty empty empty 0 -10 0 12 #fcfcfc #000000 #000000;
#X obj 512 446 metro 10000;
#X floatatom 576 750 5 0 0 0 - - - 0;
#X connect 0 0 1 0;
#X connect 1 0 15 0;
#X connect 2 0 1 1;
#X connect 4 0 2 0;
#X connect 5 0 4 0;
#X connect 6 0 5 0;
#X connect 7 0 1 0;
#X connect 8 0 9 0;
#X connect 9 0 10 0;
#X connect 10 0 1 2;
#X connect 19 0 16 0;
#X connect 20 0 155 1;
#X connect 21 0 20 0;
#X connect 21 0 22 0;
#X connect 22 0 156 1;
#X connect 23 0 27 0;
#X connect 24 0 184 0;
#X connect 25 0 21 0;
#X connect 26 0 23 0;
#X connect 27 0 25 0;
#X connect 28 0 27 1;
#X connect 31 0 32 0;
#X connect 32 0 33 0;
#X connect 33 0 45 0;
#X connect 33 0 52 0;
#X connect 34 0 33 1;
#X connect 35 0 34 0;
#X connect 36 0 37 0;
#X connect 37 0 35 0;
#X connect 40 0 44 0;
#X connect 40 0 42 0;
#X connect 42 0 56 0;
#X connect 44 0 36 0;
#X connect 45 2 51 0;
#X connect 45 3 51 1;
#X connect 46 0 45 2;
#X connect 47 0 45 3;
#X connect 48 0 45 4;
#X connect 49 0 45 5;
#X connect 52 0 45 1;
#X connect 56 0 36 0;
#X connect 58 0 57 0;
#X connect 60 0 75 0;
#X connect 60 0 151 0;
#X connect 61 0 227 0;
#X connect 66 0 179 0;
#X connect 70 0 67 0;
#X connect 72 0 74 0;
#X connect 72 0 76 0;
#X connect 72 0 86 0;
#X connect 72 0 87 0;
#X connect 74 0 71 0;
#X connect 75 0 72 0;
#X connect 76 0 71 0;
#X connect 77 0 85 0;
#X connect 78 0 77 0;
#X connect 79 0 80 0;
#X connect 80 0 81 0;
#X connect 81 0 71 0;
#X connect 82 0 79 0;
#X connect 83 0 82 0;
#X connect 84 0 85 1;
#X connect 85 0 81 1;
#X connect 86 0 83 0;
#X connect 87 0 88 0;
#X connect 88 0 83 0;
#X connect 94 0 59 0;
#X connect 95 0 96 0;
#X connect 96 0 97 0;
#X connect 97 0 109 0;
#X connect 97 0 116 0;
#X connect 98 0 97 1;
#X connect 99 0 98 0;
#X connect 100 0 101 0;
#X connect 101 0 99 0;
#X connect 104 0 122 0;
#X connect 104 0 123 0;
#X connect 104 0 125 0;
#X connect 109 2 115 0;
#X connect 109 3 115 1;
#X connect 110 0 109 2;
#X connect 111 0 109 3;
#X connect 112 0 109 4;
#X connect 113 0 109 5;
#X connect 116 0 109 1;
#X connect 121 0 100 0;
#X connect 122 0 100 0;
#X connect 123 0 121 0;
#X connect 124 0 95 0;
#X connect 125 0 129 0;
#X connect 125 0 128 0;
#X connect 126 0 124 0;
#X connect 128 0 130 0;
#X connect 129 0 126 0;
#X connect 130 0 126 0;
#X connect 131 0 135 0;
#X connect 132 0 185 0;
#X connect 133 0 104 0;
#X connect 134 0 131 0;
#X connect 135 0 133 0;
#X connect 136 0 135 1;
#X connect 145 0 94 0;
#X connect 145 0 216 0;
#X connect 146 0 219 0;
#X connect 146 0 145 0;
#X connect 147 0 225 0;
#X connect 148 0 149 0;
#X connect 149 0 150 0;
#X connect 150 0 147 0;
#X connect 151 0 146 1;
#X connect 152 0 154 0;
#X connect 152 0 157 0;
#X connect 153 0 155 0;
#X connect 154 0 156 0;
#X connect 155 0 158 0;
#X connect 156 0 158 1;
#X connect 157 0 153 0;
#X connect 159 0 19 0;
#X connect 159 0 70 0;
#X connect 159 0 58 0;
#X connect 159 0 190 0;
#X connect 160 0 61 0;
#X connect 160 0 218 0;
#X connect 161 0 24 0;
#X connect 162 0 66 0;
#X connect 163 0 132 0;
#X connect 164 0 136 0;
#X connect 165 0 28 0;
#X connect 166 0 110 0;
#X connect 167 0 111 0;
#X connect 169 0 46 0;
#X connect 170 0 47 0;
#X connect 171 0 31 0;
#X connect 172 0 59 0;
#X connect 173 0 172 0;
#X connect 174 0 71 0;
#X connect 175 0 174 0;
#X connect 176 0 158 0;
#X connect 177 0 176 0;
#X connect 178 0 180 0;
#X connect 179 0 40 0;
#X connect 180 0 182 0;
#X connect 181 0 180 1;
#X connect 182 0 179 1;
#X connect 183 0 152 0;
#X connect 184 0 26 0;
#X connect 185 0 134 0;
#X connect 186 0 181 0;
#X connect 190 0 187 0;
#X connect 191 0 211 0;
#X connect 191 0 212 0;
#X connect 192 0 196 0;
#X connect 193 0 210 0;
#X connect 194 0 191 0;
#X connect 195 0 192 0;
#X connect 196 0 194 0;
#X connect 197 0 196 1;
#X connect 200 0 202 0;
#X connect 200 0 205 0;
#X connect 201 0 203 0;
#X connect 202 0 204 0;
#X connect 203 0 206 0;
#X connect 204 0 206 1;
#X connect 205 0 201 0;
#X connect 207 0 193 0;
#X connect 208 0 197 0;
#X connect 209 0 206 0;
#X connect 210 0 195 0;
#X connect 211 0 204 1;
#X connect 212 0 203 1;
#X connect 213 0 200 0;
#X connect 214 0 209 0;
#X connect 216 0 59 1;
#X connect 217 0 219 0;
#X connect 218 0 217 0;
#X connect 219 0 220 0;
#X connect 220 0 221 0;
#X connect 221 0 223 0;
#X connect 222 0 221 1;
#X connect 223 0 224 0;
#X connect 223 0 226 0;
#X connect 224 0 225 1;
#X connect 225 0 228 0;
#X connect 226 0 148 0;
#X connect 227 0 60 0;
#X connect 228 0 146 0;
