#N canvas 617 44 1164 1097 12;
#X obj 45 97 noise~;
#X obj 75 208 bob~, f 24;
#X obj 158 140 line~;
#X text 134 82 Hz;
#X obj 158 109 pack f 50;
#X floatatom 158 82 8 0 0 0 - - - 0;
#X obj 154 51 hsl 162 19 60 5000 0 1 empty empty empty -2 -8 0 10 #dfdfdf #000000 #000000 600 1;
#X obj 76 152 r \$0-set;
#X obj 244 105 hsl 162 19 0 4 0 1 empty empty empty -2 -8 0 10 #dfdfdf #000000 #000000 11100 1;
#X floatatom 241 132 5 0 8 0 - - - 0;
#X obj 241 161 sig~;
#X text 283 132 (> 4 to oscillate);
#X text 144 27 resonant/cutoff frequency;
#X text 267 83 "resonance" (0-8);
#X text 267 215 NOISE;
#X obj 80 275 output~;
#X obj 487 282 output~;
#X obj 918 60 soundfiler;
#N canvas 0 22 450 278 (subpatch) 0;
#X array GrowlSound1 224734 float 2;
#X coords 0 1 224734 -1 200 140 1;
#X restore 1017 74 graph;
#N canvas 0 22 450 278 (subpatch) 0;
#X array GrowlSound2 224734 float 2;
#X coords 0 1 224734 -1 200 140 1;
#X restore 1018 244 graph;
#X msg 916 29 read -resize MonsterGrowl.wav GrowlSound1 GrowlSound2;
#X obj 544 211 tabplay~ GrowlSound1;
#X obj 488 211 bng 19 250 50 0 empty empty empty 0 -10 0 12 #fcfcfc #000000 #000000;
#X obj 479 243 tabplay~ GrowlSound2;
#X floatatom 485 121 5 0 0 0 - - - 0;
#X msg 481 29 1;
#X obj 486 177 sel 1;
#X obj 483 92 random 100;
#X obj 485 147 expr if($f1 > $f2 \, 1 \, 0);
#X floatatom 607 119 5 0 0 0 - - - 0;
#X text 202 330 Deep noise;
#X text 611 321 Monster growl;
#X floatatom 110 659 5 0 0 0 - - - 0;
#X obj 110 689 osc~;
#X obj 101 626 hsl 162 19 200 2000 0 0 empty empty empty -2 -10 0 12 #fcfcfc #000000 #000000 0 1;
#X obj 109 717 *~;
#X floatatom 202 706 5 0 0 0 - - - 0;
#X obj 306 567 vsl 19 162 0 1 0 0 empty empty empty 0 -9 0 12 #fcfcfc #000000 #000000 0 1;
#X obj 103 565 line;
#X floatatom 107 598 5 0 0 0 - - - 0;
#X text 104 481 Attack Go to 1 \, over 1000ms;
#X text 143 568 Create an envelope;
#X obj 98 456 bng 19 250 50 0 empty empty empty 0 -10 0 12 #fcfcfc #000000 #000000;
#X text 88 434 Bang object \, trigger something;
#X text 10 627 Freq slider;
#X obj 165 504 delay 100;
#X text 146 599 Value used for volume;
#X msg 98 504 1 10;
#X obj -14 887 rev3~ 100 90 3000 20;
#X floatatom 40 748 4 0 120 0 - - - 0;
#X floatatom 68 777 4 0 100 0 - - - 0;
#X floatatom 96 816 6 0 0 0 - - - 0;
#X floatatom 123 845 4 0 100 0 - - - 0;
#X text 143 814 crossover frequency \, Hz.;
#X obj -61 938 output~;
#X obj 78 937 output~;
#X obj -2 801 *~ -1;
#X text 71 748 output level (dB);
#X text 101 772 liveness \, feedback percentage (0-100), f 18;
#X text 158 839 High Frequency damping \, percentage (0-100), f 23;
#X text 141 886 args: level \, liveness \, crossover \, damping;
#X msg 172 539 0 400;
#X obj 1300 493 soundfiler;
#X msg 1298 462 read -resize Breathin.wav breathin1 breathin2;
#X obj 562 808 output~;
#X obj 484 478 bng 19 250 50 0 empty empty empty 0 -10 0 12 #fcfcfc #000000 #000000;
#X msg 513 413 1;
#X text 684 847 Breathe in;
#X text 200 978 Sonar ping;
#N canvas 0 22 450 278 (subpatch) 0;
#X array breathin1 224734 float 2;
#X coords 0 1 224734 -1 200 140 1;
#X restore 1397 511 graph;
#N canvas 0 22 450 278 (subpatch) 0;
#X array breathin2 224734 float 2;
#X coords 0 1 224734 -1 200 140 1;
#X restore 1398 681 graph;
#X msg 54 371 1;
#X obj 1269 106 soundfiler;
#N canvas 0 22 450 278 (subpatch) 0;
#X array breathout1 224734 float 2;
#X coords 0 1 224734 -1 200 140 1;
#X restore 1379 126 graph;
#N canvas 0 22 450 278 (subpatch) 0;
#X array breathout2 224734 float 2;
#X coords 0 1 224734 -1 200 140 1 0 0;
#X restore 1367 294 graph;
#X msg 1267 75 read -resize Breathout.wav breathout1 breathout2;
#X obj 845 807 output~;
#X obj 833 560 bng 19 250 50 0 empty empty empty 0 -10 0 12 #fcfcfc #000000 #000000;
#X text 969 849 Breathe in;
#X obj 806 671 tabplay~ breathout2;
#X obj 820 498 delay 4000;
#X obj 512 446 metro 8000;
#X obj 794 650 tabplay~ breathout1;
#X obj 483 60 metro 30000 1;
#X obj 1077 665 noise~;
#X msg 1082 635 seed 123;
#X obj 962 699 hsl 162 19 0 1 0 0 empty empty empty -2 -10 0 12 #fcfcfc #000000 #000000 0 1;
#X floatatom 963 733 5 0 0 0 - - - 0;
#X obj 1008 774 *~;
#X floatatom 1024 661 5 0 0 0 - - - 0;
#X obj 967 649 line;
#X floatatom 1075 727 5 0 0 0 - - - 0;
#X obj 1026 734 lop~;
#X msg 975 593 0.1 500;
#X obj 1038 590 delay 1000;
#X msg 1020 635 0 2000;
#X text 1119 730 freq cutoff;
#X text 970 568 attack;
#X text 1047 567 delay;
#X obj 843 955 tabplay~ breathin1;
#X obj 841 985 tabplay~ breathin2;
#X obj 539 783 tabread4~ breathin1;
#X floatatom 1194 1183 5 0 0 0 - - - 0;
#X obj 1193 1213 osc~;
#X obj 1192 1241 *~;
#X floatatom 1285 1230 5 0 0 0 - - - 0;
#X obj 1389 1091 vsl 19 162 0 1 0 0 empty empty empty 0 -9 0 12 #fcfcfc #000000 #000000 0 1;
#X obj 1186 1089 line;
#X floatatom 1190 1122 5 0 0 0 - - - 0;
#X text 1187 1005 Attack Go to 1 \, over 1000ms;
#X text 1226 1092 Create an envelope;
#X obj 1181 980 bng 19 250 50 0 empty empty empty 0 -10 0 12 #fcfcfc #000000 #000000;
#X text 1171 958 Bang object \, trigger something;
#X text 1093 1151 Freq slider;
#X text 1317 1063 Decay \, Go to 0 over 500ms;
#X text 1229 1123 Value used for volume;
#X obj 1205 1400 rev3~ 100 90 3000 20;
#X floatatom 1259 1261 4 0 120 0 - - - 0;
#X floatatom 1287 1290 4 0 100 0 - - - 0;
#X floatatom 1314 1327 6 0 0 0 - - - 0;
#X floatatom 1342 1358 4 0 100 0 - - - 0;
#X text 1362 1327 crossover frequency \, Hz.;
#X obj 1158 1451 output~;
#X obj 1297 1450 output~;
#X obj 1217 1314 *~ -1;
#X text 1290 1261 output level (dB);
#X text 1320 1285 liveness \, feedback percentage (0-100), f 18;
#X text 1377 1352 High Frequency damping \, percentage (0-100), f 23;
#X text 1360 1399 args: level \, liveness \, crossover \, damping;
#X msg 1255 1063 0 2000;
#X msg 1181 1028 1 2000;
#X obj 1248 1028 delay 2000;
#X floatatom 811 1201 5 0 0 0 - - - 0;
#X text 810 1078 Attack Go to 1 \, over 1000ms;
#X obj 804 1053 bng 19 250 50 0 empty empty empty 0 -10 0 12 #fcfcfc #000000 #000000;
#X text 794 1031 Bang object \, trigger something;
#X text 940 1136 Decay \, Go to 0 over 500ms;
#X text 852 1196 Value used for volume;
#X obj 811 1166 line 750;
#X text 155 660 770;
#X obj 56 402 metro 10000;
#X obj 878 1101 delay 2000;
#X msg 804 1101 650 2000;
#X msg 878 1136 600 1000;
#X floatatom 1191 854 5 0 0 0 - - - 0;
#X msg 1187 762 1;
#X obj 1192 910 sel 1;
#X obj 1189 825 random 100;
#X obj 1191 880 expr if($f1 > $f2 \, 1 \, 0);
#X floatatom 1312 851 5 0 0 0 - - - 0;
#X obj 1189 793 metro 30000 1;
#X text 646 120 %;
#X text 11 750 100;
#X text 47 778 82;
#X text 71 815 0;
#X text 106 843 0;
#X text 1355 853 %;
#X text 1240 1261 99;
#X text 1267 1287 94;
#X obj 539 758 *~ 224734;
#X obj 535 732 phasor~ 1;
#X floatatom 356 650 5 0 0 0 - - - 0;
#X obj 349 557 random 10;
#X obj 353 590 + 18;
#X obj 350 620 * 0.01;
#X msg 690 582 1;
#X obj 403 649 tgl 19 0 empty empty empty 0 -10 0 12 #fcfcfc #000000 #000000 0 1;
#X obj 363 692 *;
#X floatatom 436 704 5 0 0 0 - - - 0;
#X obj 482 541 delay 5000;
#X obj 571 589 snapshot~;
#X floatatom 489 603 5 0 0 0 - - - 0;
#X msg 517 572 1;
#X obj 567 554 metro 100;
#X floatatom 622 620 5 0 0 0 - - - 0;
#X obj 458 644 expr if($f1 > $f2 \, 0 \, 1);
#X connect 0 0 1 0;
#X connect 1 0 15 0;
#X connect 2 0 1 1;
#X connect 4 0 2 0;
#X connect 5 0 4 0;
#X connect 6 0 5 0;
#X connect 7 0 1 0;
#X connect 8 0 9 0;
#X connect 9 0 10 0;
#X connect 10 0 1 2;
#X connect 20 0 17 0;
#X connect 21 0 16 0;
#X connect 22 0 21 0;
#X connect 22 0 23 0;
#X connect 23 0 16 0;
#X connect 24 0 28 0;
#X connect 25 0 83 0;
#X connect 26 0 22 0;
#X connect 27 0 24 0;
#X connect 28 0 26 0;
#X connect 29 0 28 1;
#X connect 32 0 33 0;
#X connect 33 0 35 0;
#X connect 34 0 32 0;
#X connect 35 0 48 0;
#X connect 35 0 56 0;
#X connect 36 0 35 1;
#X connect 37 0 36 0;
#X connect 38 0 39 0;
#X connect 39 0 37 0;
#X connect 42 0 47 0;
#X connect 42 0 45 0;
#X connect 45 0 61 0;
#X connect 47 0 38 0;
#X connect 48 0 54 0;
#X connect 48 1 54 1;
#X connect 48 2 55 0;
#X connect 48 3 55 1;
#X connect 49 0 48 2;
#X connect 50 0 48 3;
#X connect 51 0 48 4;
#X connect 52 0 48 5;
#X connect 56 0 48 1;
#X connect 61 0 38 0;
#X connect 63 0 62 0;
#X connect 65 0 80 0;
#X connect 65 0 165 0;
#X connect 65 0 162 0;
#X connect 65 0 166 0;
#X connect 65 0 169 0;
#X connect 66 0 81 0;
#X connect 71 0 140 0;
#X connect 75 0 72 0;
#X connect 77 0 79 0;
#X connect 77 0 82 0;
#X connect 77 0 93 0;
#X connect 77 0 94 0;
#X connect 79 0 76 0;
#X connect 80 0 77 0;
#X connect 81 0 65 0;
#X connect 82 0 76 0;
#X connect 83 0 27 0;
#X connect 84 0 92 0;
#X connect 85 0 84 0;
#X connect 86 0 87 0;
#X connect 87 0 88 0;
#X connect 88 0 76 0;
#X connect 89 0 86 0;
#X connect 90 0 89 0;
#X connect 91 0 92 1;
#X connect 92 0 88 1;
#X connect 93 0 90 0;
#X connect 94 0 95 0;
#X connect 95 0 90 0;
#X connect 101 0 64 0;
#X connect 102 0 103 0;
#X connect 103 0 104 0;
#X connect 104 0 116 0;
#X connect 104 0 124 0;
#X connect 105 0 104 1;
#X connect 106 0 105 0;
#X connect 107 0 108 0;
#X connect 108 0 106 0;
#X connect 111 0 130 0;
#X connect 111 0 131 0;
#X connect 111 0 134 0;
#X connect 116 0 122 0;
#X connect 116 1 122 1;
#X connect 116 2 123 0;
#X connect 116 3 123 1;
#X connect 117 0 116 2;
#X connect 118 0 116 3;
#X connect 119 0 116 4;
#X connect 120 0 116 5;
#X connect 124 0 116 1;
#X connect 129 0 107 0;
#X connect 130 0 107 0;
#X connect 131 0 129 0;
#X connect 132 0 102 0;
#X connect 134 0 142 0;
#X connect 134 0 141 0;
#X connect 138 0 132 0;
#X connect 140 0 42 0;
#X connect 141 0 143 0;
#X connect 142 0 138 0;
#X connect 143 0 138 0;
#X connect 144 0 148 0;
#X connect 145 0 150 0;
#X connect 146 0 111 0;
#X connect 147 0 144 0;
#X connect 148 0 146 0;
#X connect 149 0 148 1;
#X connect 150 0 147 0;
#X connect 159 0 101 0;
#X connect 160 0 159 0;
#X connect 160 0 170 0;
#X connect 161 0 167 0;
#X connect 162 0 163 0;
#X connect 163 0 164 0;
#X connect 164 0 161 0;
#X connect 165 0 160 1;
#X connect 166 0 167 1;
#X connect 167 0 168 0;
#X connect 168 0 160 0;
#X connect 169 0 162 0;
#X connect 169 0 166 0;
#X connect 170 0 171 0;
#X connect 171 0 175 0;
#X connect 172 0 173 0;
#X connect 173 0 170 0;
#X connect 174 0 175 1;
